/* XPM */
/* /Users/uczekalla/Library/Application Support/CrossOver/Bottles/EasyCashTax/dosdevices/c:/windows/ControlPanelDB/joy.ico */
static char *icon[] = {
"48 48 7 2",
"00 c #000000",
"01 c #7F7F7F",
"02 c #FFFFFF",
"03 c #FF0000",
"04 c #C0C0C0",
"05 c #7F0000",
"   c None",
"                                              010101                                            ",
"                                        010101050505010101                                      ",
"                                      0105050505050505050501                                    ",
"                                    01050505030303050505050501                                  ",
"                                    01050503030303030505050501                                  ",
"                                  010505030303030303030505050501                                ",
"                                  010505030303030303030505050501                                ",
"                                  010505050303030303050505050501                                ",
"                                  010505050503030305050505050501                                ",
"                                  010505050505050505050505050501                                ",
"                                  010505050505050505050505050501                                ",
"                                    01050505050505050505050501                                  ",
"                                      0105050505050505050501                                    ",
"                                        010505050505050501                                      ",
"                                          01040505050401                                        ",
"                                          01040404040401                                        ",
"                                          01040404040401              0101010101010101          ",
"                                          01040404040401            01040402020202040401        ",
"                                          01040404040401          010202040404040404020201      ",
"                                          01040404040401          010202020202020202020201      ",
"                                        010404040404040401        010202020202040204020401      ",
"                01010101010101010101010102040404040404040201010101010404040404020402040401      ",
"              010202020202020202020202040204040404040404020402020102020202040204020404040401    ",
"              010204040404040404040202040402040404040402040402020102020202020402040404020401    ",
"            01020404040404040402020202040404020202020204040402020102020204010101010101010401    ",
"            0102040404040404020202020404040404040404040404040401010101040105050505050505010101  ",
"          010204040404040402020202020404040404040404040404040401050504040503030303030303050501  ",
"          010204040404040402020202020404040404040404040404040401050504040105050505050505050501  ",
"        01020404040404040402020202020204040404040404040404040201050501040105050505050505050501  ",
"        010204040404040404020202020202020404040404040404040202020105050101050505050505030501    ",
"      01020404040404040404040202020202020202020404040402020202020105050501050505050305030501    ",
"      01020404040505050505040402020202020202020202020202020202020105050505050505030503050501    ",
"      010204040503030303030504040202020202020202020202020202020202010505050505050503050501      ",
"    0102040404050303030303050404040402020202020202020202020204040404010105050503030501010201    ",
"    0102040404040505050505040404040404040404040404040404040404040404040401050505050104040201    ",
"    0102040404040404040404040404040404040404040404040404040404040404040404010101010404040201    ",
"    0104020202020202020202020202020202020202020202020202020202020202020202020101020202020401    ",
"    0104040404040404040404040404040404040404040404040404040404040404040404040101040404040401    ",
"    0104040404040404040404040404040404040404040404040404040404040404040404040101040404040401    ",
"    0104040404040404040404040404040404040404040404040404040404040404040404040101040404040401    ",
"    0104040404040404040404040404040404040404040404040404040404040404040404040101040404040401    ",
"    0104040404040404040404040404040404040404040404040404040404040404040101010101010101040401    ",
"    0104040404040404040404040404040404040404040404040404040404040401010402020100000101010101    ",
"      010101010101010101010101010101010101010101010101010101010101010402020204010104040401      ",
"                                                                  010104020404040404040101      ",
"                                                                      0101010101010101          ",
"                                                                                                ",
"                                                                                                "};
